<?xml version="1.0" standalone="no"?>
<!DOCTYPE svg PUBLIC "-//W3C//DTD SVG 20010904//EN"
 "http://www.w3.org/TR/2001/REC-SVG-20010904/DTD/svg10.dtd">
<svg version="1.0" xmlns="http://www.w3.org/2000/svg"
 width="57.000000pt" height="59.000000pt" viewBox="0 0 200.000000 200.000000"
 preserveAspectRatio="xMidYMid meet">
<metadata>
Created by potrace 1.10, written by Peter Selinger 2001-2011
</metadata>
<g transform="translate(0.000000,200.000000) scale(0.100000,-0.100000)"
fill="#000000" stroke="none">
<path d="M720 1200 l0 -110 60 0 c47 0 64 4 80 20 27 27 25 54 -4 77 -23 19
-23 20 -5 31 26 16 24 57 -3 76 -14 10 -44 16 -75 16 l-53 0 0 -110z m101 80
c42 -23 12 -70 -45 -70 -24 0 -26 4 -26 40 0 36 2 40 26 40 14 0 34 -5 45 -10z
m23 -112 c18 -29 -4 -53 -53 -56 l-41 -3 0 41 0 41 41 -3 c27 -2 46 -9 53 -20z"/>
<path d="M920 1227 c0 -91 13 -121 57 -138 32 -12 89 5 103 31 15 29 13 190
-3 190 -9 0 -11 -19 -9 -75 5 -93 -11 -125 -61 -125 -50 0 -57 14 -57 112 0
72 -3 88 -15 88 -12 0 -15 -16 -15 -83z"/>
<path d="M1120 1296 c0 -11 9 -13 35 -9 l35 6 0 -102 c0 -83 3 -101 15 -101
12 0 15 18 15 101 l0 102 35 -6 c26 -4 35 -2 35 9 0 11 -18 14 -85 14 -67 0
-85 -3 -85 -14z"/>
<path d="M1320 1200 l0 -110 65 0 c37 0 65 4 65 10 0 6 -24 10 -52 10 l-53 0
3 100 c3 85 1 100 -12 100 -14 0 -16 -17 -16 -110z"/>
<path d="M1480 1200 l0 -110 65 0 c37 0 65 4 65 10 0 6 -22 10 -50 10 l-50 0
0 40 0 40 45 0 c32 0 45 4 45 14 0 10 -11 12 -45 8 l-45 -5 0 42 0 43 47 -3
c30 -2 48 1 51 9 3 9 -15 12 -62 12 l-66 0 0 -110z"/>
<path d="M1650 1200 c0 -91 3 -110 15 -110 11 0 15 12 15 45 0 41 2 45 24 45
17 0 29 -11 47 -44 13 -25 31 -47 41 -49 23 -7 23 -6 -12 49 -29 47 -29 48
-10 61 13 9 20 26 20 48 0 44 -29 65 -92 65 l-48 0 0 -110z m112 68 c20 -33
-7 -68 -53 -68 -28 0 -29 2 -29 46 l0 47 37 -6 c20 -4 40 -12 45 -19z"/>
<path d="M299 1101 c-31 -25 -19 -38 15 -16 30 20 62 13 69 -15 3 -11 13 -20
23 -20 16 0 16 -1 -1 -20 -11 -12 -15 -26 -10 -37 5 -15 9 -12 21 17 12 27 13
39 4 54 -11 17 -9 18 13 12 14 -3 38 -1 53 5 28 10 28 10 9 -11 -18 -19 -18
-22 -2 -38 17 -16 17 -16 15 8 -3 22 1 25 32 28 44 4 57 16 40 37 -16 19 -69
19 -97 0 -19 -13 -29 -13 -85 0 -78 18 -71 19 -99 -4z"/>
<path d="M340 960 c0 -73 4 -120 10 -120 6 0 10 47 10 120 0 73 -4 120 -10
120 -6 0 -10 -47 -10 -120z"/>
<path d="M710 961 c0 -101 2 -121 15 -121 12 0 15 14 15 65 0 54 3 66 20 75
23 13 59 5 61 -13 1 -7 0 -38 -1 -69 -1 -47 1 -58 14 -58 25 0 23 131 -2 153
-23 21 -51 22 -78 3 -19 -14 -20 -13 -20 31 1 28 -4 48 -11 50 -10 4 -13 -24
-13 -116z"/>
<path d="M905 1060 c-4 -6 -3 -16 3 -22 6 -6 12 -6 17 2 4 6 3 16 -3 22 -6 6
-12 6 -17 -2z"/>
<path d="M166 1034 c-14 -15 -27 -38 -27 -53 -2 -43 -3 -47 -21 -65 -10 -10
-18 -21 -18 -24 0 -4 45 -52 100 -107 l100 -100 72 73 c40 39 67 72 61 72 -7
0 -29 -16 -48 -36 -20 -20 -38 -34 -41 -32 -2 2 12 20 31 38 19 19 35 41 35
49 0 9 -23 -7 -55 -39 l-55 -54 -35 34 c-46 44 -59 30 -14 -16 23 -24 41 -34
56 -31 15 3 20 0 16 -10 -10 -27 -37 -11 -121 71 -63 64 -83 89 -78 102 6 15
9 13 22 -12 8 -16 22 -35 31 -41 23 -17 113 -17 113 0 0 9 -12 11 -38 9 -59
-6 -87 23 -87 88 0 68 28 95 92 87 32 -3 43 -1 43 9 0 10 -15 14 -54 14 -44 0
-58 -4 -80 -26z"/>
<path d="M1420 950 l0 -110 65 0 c37 0 65 4 65 10 0 6 -22 10 -50 10 l-50 0 0
100 c0 82 -3 100 -15 100 -12 0 -15 -19 -15 -110z"/>
<path d="M1580 950 l0 -110 65 0 c37 0 65 4 65 10 0 6 -22 10 -50 10 l-50 0 0
100 c0 82 -3 100 -15 100 -12 0 -15 -19 -15 -110z"/>
<path d="M1767 1036 c-47 -44 -44 -146 6 -181 28 -20 117 -20 117 -1 0 11 -10
13 -39 9 -54 -7 -91 28 -91 87 0 59 36 93 92 88 27 -2 43 1 45 10 3 8 -11 12
-50 12 -43 0 -59 -5 -80 -24z"/>
<path d="M612 1028 c-6 -16 -16 -28 -22 -28 -5 0 -10 -4 -10 -10 0 -5 5 -9 12
-7 8 1 11 -15 9 -50 -3 -67 11 -93 49 -93 35 0 41 17 8 22 -21 3 -23 9 -26 67
l-3 63 25 -6 c20 -5 26 -3 26 10 0 12 -7 15 -24 12 -21 -4 -26 -1 -29 21 l-3
26 -12 -27z"/>
<path d="M200 995 c-13 -14 -19 -25 -14 -25 12 0 26 11 43 33 21 26 -2 20 -29
-8z"/>
<path d="M235 989 c-35 -31 -60 -67 -53 -75 2 -2 29 21 58 51 58 59 54 76 -5
24z"/>
<path d="M436 989 c-21 -17 -26 -29 -26 -65 0 -55 25 -84 74 -84 49 0 80 40
73 95 -10 69 -68 96 -121 54z m78 -15 c19 -18 21 -85 4 -102 -31 -31 -88 -2
-88 46 0 58 50 91 84 56z"/>
<path d="M470 949 c0 -14 -5 -30 -12 -37 -9 -9 -8 -12 5 -12 20 0 34 47 18 63
-8 8 -11 5 -11 -14z"/>
<path d="M490 895 c-20 -24 -6 -28 15 -5 10 11 13 20 8 20 -6 0 -16 -7 -23
-15z"/>
<path d="M900 925 c0 -69 3 -85 15 -85 12 0 15 16 15 85 0 69 -3 85 -15 85
-12 0 -15 -16 -15 -85z"/>
<path d="M980 925 c0 -71 3 -85 16 -85 12 0 15 10 14 43 -3 74 0 86 20 97 12
6 30 8 40 5 17 -6 20 -16 20 -76 0 -55 3 -69 15 -69 21 0 21 117 -1 148 -18
26 -60 29 -86 5 -17 -15 -18 -15 -18 0 0 10 -4 17 -10 17 -6 0 -10 -35 -10
-85z"/>
<path d="M1180 990 c-24 -24 -26 -53 -5 -70 12 -10 12 -16 4 -26 -6 -8 -9 -20
-6 -28 3 -8 -1 -20 -9 -26 -36 -31 -5 -73 54 -73 55 0 82 18 82 53 0 35 -23
50 -75 50 -46 0 -43 24 3 28 38 4 64 36 56 69 -5 17 -2 23 10 23 9 0 16 5 16
10 0 6 -25 10 -55 10 -42 0 -60 -5 -75 -20z m75 -35 c0 -27 -3 -30 -30 -30
-21 0 -31 5 -33 18 -6 33 6 49 35 45 24 -3 28 -8 28 -33z m22 -131 c8 -21 -14
-34 -59 -34 -40 0 -51 9 -42 34 9 22 92 22 101 0z"/>
<path d="M275 940 c-35 -36 -46 -53 -38 -61 16 -16 80 44 85 81 3 17 4 30 3
30 0 0 -23 -22 -50 -50z"/>
<path d="M380 939 c0 -5 5 -7 10 -4 6 3 10 8 10 11 0 2 -4 4 -10 4 -5 0 -10
-5 -10 -11z"/>
<path d="M310 875 c-7 -9 -8 -15 -2 -15 5 0 12 7 16 15 3 8 4 15 2 15 -2 0 -9
-7 -16 -15z"/>
<path d="M294 835 c-17 -13 -17 -14 -2 -15 9 0 20 5 23 11 11 17 0 20 -21 4z"/>
</g>
</svg>
